<svg width="68" height="68" viewBox="0 0 68 68" fill="none" xmlns="http://www.w3.org/2000/svg">
<g clip-path="url(#clip0_347_3026)">
<path d="M54.7089 68.0267H13.7287C6.30783 68.0267 0.298279 62.0111 0.298279 54.591V13.6148C0.298279 6.19465 6.30783 0.185684 13.7287 0.185684H54.7089C62.1297 0.185684 68.1459 6.20127 68.1459 13.6214V54.591C68.1459 62.0111 62.1297 68.0267 54.7089 68.0267Z" fill="white"/>
<path d="M41.1592 20.7036C41.1592 24.533 38.0583 27.6401 34.2286 27.6401C30.3989 27.6401 27.2849 24.533 27.2849 20.7036C27.2849 16.8743 30.3989 13.7672 34.2286 13.7672C38.0517 13.7672 41.1592 16.8743 41.1592 20.7036Z" fill="#0584CA"/>
<path d="M16.8758 31.3699H24.1707V34.7155C25.2242 33.3243 26.291 32.3371 27.3511 31.7475C28.4245 31.1512 29.7165 30.8597 31.2272 30.8597C32.8571 30.8597 34.1491 31.1844 35.0966 31.827C36.0441 32.4763 36.8127 33.4369 37.4222 34.7155C38.6546 33.2183 39.7876 32.2046 40.8013 31.6614C41.8151 31.1314 43.074 30.8597 44.5648 30.8597C46.7645 30.8597 48.4806 31.5885 49.713 33.046C50.952 34.5035 51.5616 36.7826 51.5616 39.8765V54.2331H43.7233V41.228C43.7233 40.1945 43.5444 39.4392 43.18 38.9291C42.6566 38.1407 41.9874 37.7565 41.1989 37.7565C40.2647 37.7565 39.516 38.1275 38.9461 38.8695C38.3763 39.6181 38.098 40.8106 38.098 42.4603V54.2397H30.2532V41.6719C30.2532 40.6583 30.2134 39.9825 30.1008 39.6247C29.9418 39.0484 29.6502 38.5846 29.2394 38.2335C28.8353 37.8823 28.3516 37.7101 27.795 37.7101C26.9005 37.7101 26.1585 38.0877 25.582 38.843C25.0056 39.6049 24.7207 40.857 24.7207 42.5795V54.2331H16.8758V31.3699Z" fill="black"/>
</g>
<rect x="0.187109" y="0.187109" width="67.6258" height="67.6258" rx="13.9796" stroke="#CCCCCC" stroke-width="0.374217"/>
<defs>
<clipPath id="clip0_347_3026">
<rect width="68" height="68" rx="14.1667" fill="white"/>
</clipPath>
</defs>
</svg>
