<?xml version="1.0" encoding="utf-8"?>
<!-- Generator: Adobe Illustrator 23.0.3, SVG Export Plug-In . SVG Version: 6.00 Build 0)  -->
<svg version="1.1" id="Calque_1" xmlns="http://www.w3.org/2000/svg" xmlns:xlink="http://www.w3.org/1999/xlink" x="0px" y="0px"
	 viewBox="0 0 36.3 36.3" style="enable-background:new 0 0 36.3 36.3;" xml:space="preserve">
<style type="text/css">
	.st0{fill:#E40173;}
	.st1{fill:#6308F7;}
</style>
<path class="st0" d="M8.3,27.4c2.4,3.6,6,5.9,10.2,5.9c4.1,0,7.7-2.3,10.1-5.8c-2.4,0.7-6,1.1-10,1.1C14.4,28.6,10.7,28.1,8.3,27.4z
	"/>
<path class="st1" d="M16.3,4.1v18h-5v-7.3H5.1v7.3H0v-18h5.1v6.7h6.2V4.1H16.3z"/>
<path class="st1" d="M31.7,4.8c1.2,0.5,2.2,1.4,3,2.4c0.8,1.1,1.3,2.3,1.6,3.6h-5.3c-0.3-0.7-0.7-1.3-1.4-1.7
	c-0.6-0.4-1.4-0.6-2.1-0.6c-0.5,0-1,0.1-1.5,0.3c-0.5,0.2-0.9,0.5-1.2,0.9c-0.7,0.8-1,1.9-1,3.3c0,1.4,0.3,2.5,1,3.3
	c0.3,0.4,0.7,0.7,1.2,0.9c0.5,0.2,1,0.3,1.5,0.3c0.8,0,1.5-0.2,2.1-0.6c0.6-0.4,1.1-1,1.4-1.7h5.3c-0.4,2.1-1.4,3.8-2.9,5
	c-1.5,1.2-3.5,1.9-5.8,1.9c-1.7,0-3.3-0.4-4.7-1.2c-1.3-0.8-2.4-1.9-3.1-3.2c-0.7-1.5-1.1-3.1-1.1-4.8c0-1.7,0.3-3.3,1.1-4.8
	c0.7-1.4,1.8-2.5,3.1-3.2c1.4-0.8,3.1-1.2,4.7-1.2C29,3.9,30.4,4.2,31.7,4.8z"/>
</svg>
