<svg id="Layer_1" data-name="Layer 1" xmlns="http://www.w3.org/2000/svg" viewBox="0 0 391.87 400.49"><defs><style>.cls-1{fill:#00a9ff;}.cls-2{fill:#fff;}</style></defs><title>LogoWhiteSlash</title><path class="cls-1" d="M696.23,438.65a74.43,74.43,0,0,0-74.43-74.44H471.05a52.25,52.25,0,0,0,.36,6,49.41,49.41,0,0,0,37.33,41.94,48.47,48.47,0,0,0,11.69,1.41H621.8a25,25,0,0,1,25,24.57c.26,14-11.66,25.51-25.69,25.51H508.74a49.41,49.41,0,0,0,37.68,48,50.61,50.61,0,0,0,5.41,1h0a52.32,52.32,0,0,0,6.29.39H621.8a25,25,0,0,1,25,24.56c.26,14-11.66,25.53-25.71,25.53H551.69a74.45,74.45,0,0,0,69.95,49.38h.16a74.44,74.44,0,0,0,55.38-124.17A74.1,74.1,0,0,0,696.23,438.65Z" transform="translate(-304.36 -286.64)"/><path class="cls-1" d="M482.32,563.18h21a49.11,49.11,0,0,1-12.14,32.42h0c-.74.85-1.51,1.68-2.31,2.48a49.31,49.31,0,0,1-33.35,14.43Z" transform="translate(-304.36 -286.64)"/><path class="cls-1" d="M618.15,364.21v49.37H428.53a74.8,74.8,0,1,0,0,149.6h6.28l-26,47.81a124.21,124.21,0,0,1-104.48-122.6A124.18,124.18,0,0,1,428.53,364.21Z" transform="translate(-304.36 -286.64)"/><path class="cls-1" d="M482.32,563.18l-26.8,49.34-1.56,0H428.53A124.08,124.08,0,0,1,408.84,611l26-47.81Z" transform="translate(-304.36 -286.64)"/><path class="cls-2" d="M454,612.55l1.56,0L415,687.13,378.31,667.2,408.84,611a124.08,124.08,0,0,0,19.69,1.56Z" transform="translate(-304.36 -286.64)"/><polygon class="cls-2" points="317.34 19.93 317.33 19.94 286.03 77.57 259.22 126.94 177.96 276.54 130.45 276.54 211.7 126.94 238.51 77.57 280.64 0.01 280.64 0 280.66 0.01 317.34 19.93"/><polygon class="cls-2" points="63.12 400.49 110.64 400.49 73.95 380.56 63.12 400.49"/><polygon class="cls-2" points="328.16 0.01 280.64 0.01 317.33 19.94 328.16 0.01"/></svg>